PathFileType	4	(X/Y/Z)	s01c0402.trc
DataRate	CameraRate	NumFrames	NumMarkers	Units	OrigDataRate	OrigDataStartFrame	OrigNumFrames
200	200	4	48	mm	200	1000	2000
Frame#	Time	racr			lacr			c7			jug			rlel			rdr			llel			ldr			s2			lic			ric			lasi			rasi			rpsi			lpsi			rgt			lgt			rth1			rth2			rth3			rth4			rlfc			rsh1			rsh2			rsh3			rsh4			rlmal			rmmal			rcal			rtoe			rmt5			lth1			lth2			lth4			lth3			llfc			lsh1			lsh2			lsh3			lsh4			llmal			lmmal			lcal			ltoe			lmt5			SBIKE			LBIKE			RBIKE			
		X1	Y1	Z1	X2	Y2	Z2	X3	Y3	Z3	X4	Y4	Z4	X5	Y5	Z5	X6	Y6	Z6	X7	Y7	Z7	X8	Y8	Z8	X9	Y9	Z9	X10	Y10	Z10	X11	Y11	Z11	X12	Y12	Z12	X13	Y13	Z13	X14	Y14	Z14	X15	Y15	Z15	X16	Y16	Z16	X17	Y17	Z17	X18	Y18	Z18	X19	Y19	Z19	X20	Y20	Z20	X21	Y21	Z21	X22	Y22	Z22	X23	Y23	Z23	X24	Y24	Z24	X25	Y25	Z25	X26	Y26	Z26	X27	Y27	Z27	X28	Y28	Z28	X29	Y29	Z29	X30	Y30	Z30	X31	Y31	Z31	X32	Y32	Z32	X33	Y33	Z33	X34	Y34	Z34	X35	Y35	Z35	X36	Y36	Z36	X37	Y37	Z37	X38	Y38	Z38	X39	Y39	Z39	X40	Y40	Z40	X41	Y41	Z41	X42	Y42	Z42	X43	Y43	Z43	X44	Y44	Z44	X45	Y45	Z45	X46	Y46	Z46	X47	Y47	Z47	X48	Y48	Z48	
1000	5.0000	699.827820	1289.987061	-97.205589	693.191040	1249.001831	-474.189972	695.764343	1389.741211	-288.526367	677.679321	1219.778320	-278.207489	550.445557	1063.815552	35.336449	695.030457	888.004944	-37.963871	510.253326	1025.953369	-560.412170	679.792542	892.157593	-449.522919	161.253113	1207.152222	-243.296997	314.601257	1208.406860	-434.067505	327.494812	1199.467896	-102.749680	317.978363	1156.360352	-410.013519	346.330566	1152.639282	-133.488388	195.014099	1245.063965	-194.875122	187.735092	1247.460449	-299.537506	277.388184	1084.267944	-66.830185	253.713364	1071.934326	-444.845612	362.374756	988.201233	-58.611496	421.363708	928.611450	-63.147854	479.228210	859.963623	-73.519859	460.021606	963.713928	-85.824715	505.620270	755.291077	-96.617599	401.105316	696.236877	-62.834255	332.815918	646.481384	-67.343773	255.853500	602.236328	-77.713463	359.783813	608.256653	-105.273476	147.708038	553.581482	-94.641937	180.244156	525.062317	-172.517563	111.053932	578.138123	-151.482025	186.724472	316.824371	-137.473724	123.690071	404.585938	-69.413757	307.477661	952.850281	-449.593018	366.995605	896.170166	-430.606720	410.059326	928.990112	-446.178864	426.218750	826.721252	-433.427246	480.607635	718.956604	-417.486755	406.993103	631.753601	-448.362823	376.653473	550.497009	-442.338470	344.911530	471.882996	-429.658783	430.620789	533.293884	-417.695801	294.062653	354.690094	-416.008728	328.540497	360.324127	-336.017883	240.309525	331.744537	-375.814728	501.294495	240.628677	-371.842072	396.199738	242.489273	-442.728455	-223.720093	893.260010	-253.517380	-12.513849	84.479408	-456.235474	-21.567133	81.130775	-56.079651	
1001	5.0050	699.132202	1290.504150	-95.143097	694.240662	1248.642822	-472.804077	695.884155	1389.626587	-286.663452	678.455139	1220.046753	-276.051880	549.480286	1063.325684	35.870823	694.873901	888.087952	-38.076294	511.103210	1026.208374	-561.015503	679.909790	891.889160	-449.684570	161.238693	1206.065918	-244.877258	314.693756	1206.446411	-434.693268	326.990967	1199.607910	-103.415627	318.541992	1154.626221	-410.779755	345.966156	1152.844238	-134.123474	194.591461	1244.350708	-196.412323	188.067322	1246.134399	-300.971497	276.510712	1085.348755	-67.649063	252.825256	1069.076416	-444.987366	365.482117	991.600525	-58.821026	425.638580	933.243713	-62.572422	485.224731	866.086426	-73.193085	463.194824	969.024536	-86.058281	512.059875	761.094666	-96.116188	406.905090	703.582397	-62.632500	337.874634	654.918335	-67.202744	260.174927	612.028625	-77.748779	364.246521	616.236206	-105.123680	150.936630	564.062561	-94.993599	183.883011	535.731384	-172.813004	113.409279	587.929810	-151.584503	193.461670	327.972198	-137.422241	128.945236	414.678711	-69.382393	303.409454	948.559875	-449.317230	361.546234	892.388794	-431.981323	407.366272	921.697021	-445.177887	418.178802	818.946411	-433.152222	472.164215	711.525940	-417.250885	399.947540	623.682312	-448.141205	370.432495	541.980103	-442.320953	339.311096	463.150787	-429.894073	424.351562	525.387451	-416.953003	288.971619	345.989349	-416.086639	323.300446	351.859161	-336.766479	235.629822	323.517975	-375.868408	495.912048	230.348984	-371.751923	390.868896	232.979782	-442.682434	-223.706818	893.249695	-253.506226	-12.508569	84.467476	-456.230164	-21.545990	81.105858	-56.080303	
1002	5.0100	698.420410	1291.113403	-92.911880	695.274963	1248.399780	-471.343048	696.011230	1389.551025	-284.617432	679.134949	1220.343994	-273.758789	547.714661	1062.604126	36.025391	694.813049	888.149414	-38.261688	512.220764	1026.475220	-561.669861	680.126587	891.551819	-449.845428	160.999512	1205.326050	-246.538513	314.960876	1204.751953	-435.244781	326.371765	1199.842896	-104.047424	319.076599	1152.843506	-411.430573	345.589752	1153.069336	-134.582474	194.209122	1243.761841	-198.068832	188.439301	1245.046631	-302.672302	276.616333	1086.501587	-67.807884	251.993347	1066.280396	-445.127441	367.849426	995.026123	-58.388077	429.459198	938.085571	-61.885914	490.565857	872.262390	-72.562561	465.695648	974.625977	-85.721336	518.388916	767.098755	-95.438469	412.786987	711.082825	-62.545357	342.904083	663.501953	-67.203392	264.732941	621.630249	-77.772980	368.916382	624.257202	-104.905518	154.638962	574.109863	-95.317039	187.988922	546.115479	-173.119095	116.160500	597.396179	-151.479034	200.737991	338.778046	-137.409836	134.848175	424.379822	-69.352249	299.305450	944.794250	-448.916626	356.050079	888.744324	-433.431122	400.330963	914.741150	-446.417236	410.161865	811.949829	-431.928406	463.339355	704.489258	-416.781982	392.163971	615.572327	-447.636627	363.616516	533.810547	-442.294708	333.277802	454.631866	-430.020905	417.450256	517.783264	-416.330872	283.332367	337.656921	-416.069427	317.484131	343.718964	-337.524261	230.391815	315.781464	-375.842163	489.968323	220.375000	-371.675568	384.888947	223.929367	-442.703278	-223.705078	893.239929	-253.514343	-12.491611	84.455612	-456.215790	-21.552189	81.115540	-56.089333	
1003	5.0150	697.664917	1291.765503	-90.527489	696.329163	1248.262207	-469.789825	696.198975	1389.433472	-282.481201	679.886230	1220.576172	-271.444397	546.773438	1062.059814	36.647907	694.745239	888.231323	-38.449848	513.427612	1026.769409	-562.368958	680.376648	891.267456	-450.042389	160.520935	1204.741821	-248.530731	315.356262	1203.300659	-435.745667	325.667206	1200.174194	-104.615211	319.687500	1151.081421	-412.084198	345.125854	1153.524170	-135.007660	193.884399	1243.293457	-199.800797	188.928558	1244.008911	-304.423462	276.521057	1087.855225	-67.944420	251.118698	1063.816162	-445.330811	369.804413	998.428772	-57.862545	432.796478	942.971985	-61.136486	495.399139	878.512329	-71.754204	467.839355	980.116699	-85.323524	524.443848	773.490662	-94.835007	418.650299	718.722717	-62.419155	348.161041	672.016724	-67.080254	269.515045	631.032227	-77.786949	373.772369	632.333374	-104.640671	158.848694	583.673279	-95.661148	192.629593	556.114136	-173.478668	119.418282	606.168335	-151.832397	208.484390	349.145966	-137.485825	141.191727	433.640381	-69.475494	295.135529	941.319031	-448.744110	350.547058	885.251648	-434.933868	395.103119	908.270386	-446.740204	401.979889	805.371704	-430.931335	454.015625	697.612732	-416.477173	383.855896	608.252380	-448.028137	356.229218	525.960449	-442.163239	326.678833	446.514343	-429.942078	409.911530	510.518036	-415.937073	277.155914	329.725830	-415.960205	311.145660	335.935455	-338.284515	224.655518	308.435333	-375.667114	483.458252	210.893570	-371.632690	378.426758	215.405136	-442.644745	-223.717453	893.230835	-253.529526	-12.485375	84.448555	-456.229645	-21.542213	81.097771	-56.071247	
